<svg width="24" height="24" viewBox="0 0 24 24" fill="none" xmlns="http://www.w3.org/2000/svg">
<g id="3488773 1">
<g id="Group">
<g id="Group_2">
<g id="Group_3">
<g id="Group_4">
<g id="Group_5">
<path id="Vector" d="M21.3218 4.17729H19.0683C18.8601 4.17729 18.6924 4.00869 18.6924 3.80141C18.6924 3.59413 18.861 3.42554 19.0683 3.42554H21.3218C21.53 3.42554 21.6976 3.59413 21.6976 3.80141C21.6976 4.00869 21.53 4.17729 21.3218 4.17729Z" fill="#555555"/>
</g>
</g>
</g>
<g id="Group_6">
<g id="Group_7">
<g id="Group_8">
<path id="Vector_2" d="M21.3219 10.4697C21.1137 10.4697 20.946 10.3011 20.946 10.0938V2.49027H17.1917V10.0938C17.1917 10.302 17.0231 10.4697 16.8158 10.4697C16.6085 10.4697 16.4399 10.3011 16.4399 10.0938V2.11342C16.4399 1.90522 16.6085 1.73755 16.8158 1.73755H21.3228C21.531 1.73755 21.6987 1.90614 21.6987 2.11342V10.0938C21.6987 10.302 21.5301 10.4697 21.3219 10.4697Z" fill="#555555"/>
</g>
</g>
</g>
<g id="Group_9">
<g id="Group_10">
<g id="Group_11">
<path id="Vector_3" d="M16.5044 19.2552H14.682C14.4738 19.2552 14.3062 19.0866 14.3062 18.8793V15.6557C14.3062 15.4475 14.4747 15.2798 14.682 15.2798H16.5044C16.7126 15.2798 16.8802 15.4484 16.8802 15.6557V18.8793C16.8812 19.0866 16.7126 19.2552 16.5044 19.2552ZM15.0579 18.5025H16.1284V16.0307H15.0579V18.5025Z" fill="#555555"/>
</g>
</g>
</g>
<g id="Group_12">
<g id="Group_13">
<g id="Group_14">
<path id="Vector_4" d="M20.6225 19.2552H18.8002C18.592 19.2552 18.4243 19.0866 18.4243 18.8793V15.6557C18.4243 15.4475 18.5929 15.2798 18.8002 15.2798H20.6225C20.8307 15.2798 20.9984 15.4484 20.9984 15.6557V18.8793C20.9993 19.0866 20.8307 19.2552 20.6225 19.2552ZM19.1761 18.5025H20.2466V16.0307H19.1761V18.5025Z" fill="#555555"/>
</g>
</g>
</g>
<g id="Group_15">
<g id="Group_16">
<g id="Group_17">
<path id="Vector_5" d="M23.6241 22.2624H0.375875C0.167671 22.2624 0 22.0938 0 21.8865V10.0938C0 9.88559 0.168593 9.71792 0.375875 9.71792H2.05448V6.91989C2.05448 6.77154 2.142 6.63615 2.27836 6.57624L8.18854 3.95142C8.28621 3.90812 8.39675 3.90812 8.49442 3.95142L14.4046 6.57624C14.541 6.63707 14.6285 6.77159 14.6285 6.91989V9.71792H23.6241C23.8323 9.71792 24 9.88651 24 10.0938V21.8865C24 22.0938 23.8314 22.2624 23.6241 22.2624ZM0.752724 21.5097H23.2473V10.4697H14.2517C14.0435 10.4697 13.8758 10.3011 13.8758 10.0938V7.16401L8.34151 4.70604L2.80812 7.16406V10.0938C2.80812 10.302 2.63953 10.4697 2.43225 10.4697H0.752724V21.5097Z" fill="#555555"/>
</g>
</g>
</g>
<g id="Group_18">
<g id="Group_19">
<g id="Group_20">
<path id="Vector_6" d="M11.4989 22.2624H5.14101C4.93281 22.2624 4.76514 22.0938 4.76514 21.8865V14.2038C4.76514 13.9956 4.93373 13.8279 5.14101 13.8279H11.499C11.7072 13.8279 11.8748 13.9965 11.8748 14.2038V21.8865C11.8748 22.0938 11.7062 22.2624 11.4989 22.2624ZM5.51689 21.5097H11.1221V14.5796H5.51689V21.5097Z" fill="#555555"/>
</g>
</g>
</g>
<g id="Group_21">
<g id="Group_22">
<g id="Group_23">
<path id="Vector_7" d="M11.4989 16.5005H5.14101C4.93281 16.5005 4.76514 16.3319 4.76514 16.1247C4.76514 15.9174 4.93373 15.7488 5.14101 15.7488H11.499C11.7072 15.7488 11.8748 15.9174 11.8748 16.1247C11.8748 16.3319 11.7062 16.5005 11.4989 16.5005Z" fill="#555555"/>
</g>
</g>
</g>
<g id="Group_24">
<g id="Group_25">
<g id="Group_26">
<path id="Vector_8" d="M11.4989 18.4205H5.14101C4.93281 18.4205 4.76514 18.2519 4.76514 18.0446C4.76514 17.8373 4.93373 17.6687 5.14101 17.6687H11.499C11.7072 17.6687 11.8748 17.8373 11.8748 18.0446C11.8748 18.2519 11.7062 18.4205 11.4989 18.4205Z" fill="#555555"/>
</g>
</g>
</g>
<g id="Group_27">
<g id="Group_28">
<g id="Group_29">
<path id="Vector_9" d="M11.4989 20.3414H5.14101C4.93281 20.3414 4.76514 20.1728 4.76514 19.9655C4.76514 19.7582 4.93373 19.5896 5.14101 19.5896H11.499C11.7072 19.5896 11.8748 19.7582 11.8748 19.9655C11.8748 20.1728 11.7062 20.3414 11.4989 20.3414Z" fill="#555555"/>
</g>
</g>
</g>
</g>
</g>
</g>
</svg>
