<svg width="16" height="14" viewBox="0 0 16 14" fill="none" xmlns="http://www.w3.org/2000/svg">
<path id="Vector" d="M0.821777 11.9353C0.821777 12.3092 0.952634 12.627 1.21435 12.8887C1.47606 13.1504 1.79386 13.2812 2.16774 13.2812H13.8327C14.2066 13.2812 14.5244 13.1504 14.7861 12.8887C15.0478 12.627 15.1787 12.3092 15.1787 11.9353V4.22407C15.1787 4.04648 15.1436 3.8759 15.0735 3.71233C15.0034 3.54875 14.9076 3.40621 14.7861 3.2847L12.6129 1.11154C12.4914 0.99003 12.3465 0.894224 12.1783 0.824122C12.0101 0.754021 11.8418 0.718969 11.6736 0.718969H4.32688C4.14929 0.718969 3.9787 0.754021 3.81513 0.824122C3.65156 0.894224 3.50902 0.99003 3.38751 1.11154L1.21435 3.2847C1.09284 3.40621 0.997032 3.54875 0.92693 3.71233C0.856828 3.8759 0.821777 4.04648 0.821777 4.22407V11.9353ZM1.71908 11.9353V4.30819H6.20561V9.24337C6.20561 9.36488 6.25001 9.47004 6.33881 9.55883C6.4276 9.64763 6.53276 9.69203 6.65427 9.69203H9.34618C9.46769 9.69203 9.57285 9.64763 9.66164 9.55883C9.75044 9.47004 9.79484 9.36488 9.79484 9.24337V4.30819H14.2814V11.9353C14.2814 12.0568 14.237 12.162 14.1482 12.2508C14.0594 12.3395 13.9542 12.3839 13.8327 12.3839H2.16774C2.04623 12.3839 1.94107 12.3395 1.85228 12.2508C1.76348 12.162 1.71908 12.0568 1.71908 11.9353ZM2.35 3.41089L4.01843 1.74246C4.05582 1.70507 4.10255 1.67469 4.15863 1.65133C4.21472 1.62796 4.2708 1.61628 4.32688 1.61628H6.57014L6.27571 3.41089H2.35ZM7.10292 8.79472V4.30819H8.89753V8.79472H7.10292ZM7.18704 3.41089L7.48147 1.61628H8.51898L8.82743 3.41089H7.18704ZM9.43031 1.61628H11.6736C11.7297 1.61628 11.7857 1.62796 11.8418 1.65133C11.8979 1.67469 11.9446 1.70507 11.982 1.74246L13.6504 3.41089H9.72473L9.43031 1.61628Z" fill="#1470CC"/>
</svg>
