<svg width="44" height="44" viewBox="0 0 44 44" fill="none" xmlns="http://www.w3.org/2000/svg">
<g id="Group_add_light">
<circle id="Ellipse 46" cx="14.6667" cy="14.6666" r="4.58333" stroke="#222222" stroke-width="1.83333" stroke-linecap="round"/>
<path id="Ellipse 49" d="M21.5746 15.5834C22.0608 14.7412 22.8617 14.1267 23.801 13.875C24.7403 13.6233 25.7411 13.7551 26.5833 14.2413C27.4255 14.7275 28.04 15.5284 28.2917 16.4677C28.5434 17.407 28.4116 18.4079 27.9254 19.25C27.4392 20.0922 26.6383 20.7067 25.699 20.9584C24.7597 21.2101 23.7588 21.0784 22.9167 20.5921C22.0745 20.1059 21.46 19.305 21.2083 18.3657C20.9566 17.4264 21.0883 16.4255 21.5746 15.5834L21.5746 15.5834Z" stroke="#222222" stroke-width="1.83333"/>
<path id="Subtract" d="M24.5766 32.0961L25.4818 31.9517L24.5766 32.0961ZM22.9167 33H6.41671V34.8333H22.9167V33ZM5.66205 32.2405C5.90005 30.7481 6.47237 28.6271 7.81726 26.8969C9.12879 25.2096 11.2176 23.8333 14.6667 23.8333V22C10.6353 22 8.01847 23.6507 6.36978 25.7717C4.75445 27.8499 4.11205 30.3186 3.85159 31.9517L5.66205 32.2405ZM14.6667 23.8333C18.1158 23.8333 20.2046 25.2096 21.5162 26.8969C22.861 28.6271 23.4334 30.7481 23.6714 32.2405L25.4818 31.9517C25.2214 30.3186 24.579 27.8499 22.9636 25.7717C21.3149 23.6507 18.6981 22 14.6667 22V23.8333ZM6.41671 33C5.88183 33 5.60445 32.6016 5.66205 32.2405L3.85159 31.9517C3.59026 33.5903 4.92654 34.8333 6.41671 34.8333V33ZM22.9167 34.8333C24.4069 34.8333 25.7432 33.5903 25.4818 31.9517L23.6714 32.2405C23.729 32.6016 23.4516 33 22.9167 33V34.8333Z" fill="#222222"/>
<path id="Subtract_2" d="M19.432 33.9166V33L19.4268 34.8333L19.432 33.9166ZM31.7104 31.9298L30.8212 32.1525L31.7104 31.9298ZM21.634 25.6314L21.1428 24.8574L20.1984 25.4568L20.9716 26.2651L21.634 25.6314ZM24.5765 32.0961L23.6713 32.2405V32.2405L24.5765 32.0961ZM19.4426 33C19.4407 33 19.4389 33 19.4372 33L19.4268 34.8333C19.4321 34.8333 19.4374 34.8333 19.4426 34.8333V33ZM30.0576 33H19.4426V34.8333H30.0576V33ZM30.8212 32.1525C30.9198 32.5464 30.6305 33 30.0576 33V34.8333C31.6539 34.8333 33.0279 33.4175 32.5996 31.7071L30.8212 32.1525ZM24.7501 25.6667C26.6343 25.6667 27.9575 26.5882 28.927 27.8794C29.9159 29.1964 30.4966 30.856 30.8212 32.1525L32.5996 31.7071C32.2492 30.3078 31.5936 28.3775 30.3931 26.7786C29.1731 25.1538 27.3538 23.8333 24.7501 23.8333V25.6667ZM22.1251 26.4054C22.8398 25.9518 23.698 25.6667 24.7501 25.6667V23.8333C23.3421 23.8333 22.1444 24.2219 21.1428 24.8574L22.1251 26.4054ZM20.9716 26.2651C22.7083 28.0805 23.402 30.5517 23.6713 32.2405L25.4818 31.9517C25.1895 30.1188 24.4122 27.2095 22.2964 24.9978L20.9716 26.2651ZM23.6713 32.2405C23.7289 32.6016 23.4515 33 22.9167 33V34.8333C24.4068 34.8333 25.7431 33.5904 25.4818 31.9517L23.6713 32.2405ZM22.9167 33H19.432V34.8333H22.9167V33Z" fill="#222222"/>
<rect id="Rectangle 4222" x="29.7917" y="9.62496" width="8.25" height="0.916667" rx="0.458333" stroke="#222222" stroke-width="0.916667" stroke-linecap="round"/>
<rect id="Rectangle 4223" x="34.375" y="5.95833" width="8.25" height="0.916666" rx="0.458333" transform="rotate(90 34.375 5.95833)" stroke="#222222" stroke-width="0.916666" stroke-linecap="round"/>
</g>
</svg>
