<svg width="24" height="24" viewBox="0 0 24 24" fill="none" xmlns="http://www.w3.org/2000/svg">
<g id="3013911 1">
<g id="Group">
<path id="Vector" d="M23.2258 4.25806H12.3871L0.421875 12.539V19.4218H23.2258L24 18.9677V17.5299L23.4961 17.0508V15.6914L24 15.3179V13.1059L23.5469 12.6718V11.2812L24 10.8939V8.68198L23.5469 8.28124V7.06249L24 6.47004V5.03224C24 4.60465 23.6534 4.25806 23.2258 4.25806Z" fill="#E5646E"/>
<path id="Vector_2" d="M12.0156 6.47009H24V8.68208H12.0156V6.47009Z" fill="#F2F2F6"/>
<path id="Vector_3" d="M12 10.8939L12.3871 13.1059H24V10.8939H12Z" fill="#F2F2F6"/>
<path id="Vector_4" d="M0.774188 16.6452V12.7031L0 13.106V15.318L0.328125 15.5977V17.0508L0 17.5299V18.9677C0 19.3953 0.346641 19.7419 0.774188 19.7419H23.2258C23.6534 19.7419 24 19.3953 24 18.9677H3.0968C1.81406 18.9677 0.774188 17.9279 0.774188 16.6452Z" fill="#DB4655"/>
<path id="Vector_5" d="M12.3871 4.25806H0.774188L0.28125 5.03224L0.774188 13.1059H12.3871V4.25806Z" fill="#5055A0"/>
<path id="Vector_6" d="M0.774188 4.25806C0.346641 4.25806 0 4.60465 0 5.03224V13.1059H0.774188V4.25806Z" fill="#3F3F8F"/>
<path id="Vector_7" d="M1.55218 5.9839C1.33819 5.9839 1.16321 5.81056 1.16321 5.59681C1.16321 5.38306 1.33444 5.20972 1.54843 5.20972H1.55222C1.76621 5.20972 1.93932 5.38306 1.93932 5.59681C1.93932 5.81056 1.76611 5.9839 1.55218 5.9839Z" fill="white"/>
<path id="Vector_8" d="M1.55218 9.08071C1.33819 9.08071 1.16321 8.90736 1.16321 8.69361C1.16321 8.47986 1.33444 8.30652 1.54843 8.30652H1.55222C1.76621 8.30652 1.93932 8.47986 1.93932 8.69361C1.93932 8.90736 1.76611 9.08071 1.55218 9.08071Z" fill="white"/>
<path id="Vector_9" d="M1.55218 12.1775C1.33819 12.1775 1.16321 12.0042 1.16321 11.7904C1.16321 11.5767 1.33444 11.4033 1.54843 11.4033H1.55222C1.76621 11.4033 1.93932 11.5767 1.93932 11.7904C1.93932 12.0042 1.76611 12.1775 1.55218 12.1775Z" fill="white"/>
<path id="Vector_10" d="M1.55218 7.53237C1.33819 7.53237 1.16321 7.35902 1.16321 7.14527C1.16321 6.93152 1.33444 6.75818 1.54843 6.75818H1.55222C1.76621 6.75818 1.93932 6.93152 1.93932 7.14527C1.93927 7.35902 1.76611 7.53237 1.55218 7.53237Z" fill="#F2F2F6"/>
<path id="Vector_11" d="M1.55218 10.629C1.33819 10.629 1.16321 10.4557 1.16321 10.242C1.16321 10.0282 1.33444 9.85486 1.54843 9.85486H1.55222C1.76621 9.85486 1.93932 10.0282 1.93932 10.242C1.93932 10.4557 1.76611 10.629 1.55218 10.629Z" fill="#F2F2F6"/>
<path id="Vector_12" d="M10.8425 5.9839C10.6285 5.9839 10.4535 5.81056 10.4535 5.59681C10.4535 5.38306 10.6247 5.20972 10.8387 5.20972H10.8425C11.0565 5.20972 11.2296 5.38306 11.2296 5.59681C11.2296 5.81056 11.0564 5.9839 10.8425 5.9839Z" fill="white"/>
<path id="Vector_13" d="M10.8425 9.08071C10.6285 9.08071 10.4535 8.90736 10.4535 8.69361C10.4535 8.47986 10.6247 8.30652 10.8387 8.30652H10.8425C11.0565 8.30652 11.2296 8.47986 11.2296 8.69361C11.2296 8.90736 11.0564 9.08071 10.8425 9.08071Z" fill="white"/>
<path id="Vector_14" d="M10.8425 12.1775C10.6285 12.1775 10.4535 12.0042 10.4535 11.7904C10.4535 11.5767 10.6247 11.4033 10.8387 11.4033H10.8425C11.0565 11.4033 11.2296 11.5767 11.2296 11.7904C11.2296 12.0042 11.0564 12.1775 10.8425 12.1775Z" fill="white"/>
<g id="Group_2">
<path id="Vector_15" d="M10.8425 7.53237C10.6285 7.53237 10.4535 7.35902 10.4535 7.14527C10.4535 6.93152 10.6247 6.75818 10.8387 6.75818H10.8425C11.0565 6.75818 11.2296 6.93152 11.2296 7.14527C11.2296 7.35902 11.0564 7.53237 10.8425 7.53237Z" fill="#F2F2F6"/>
<path id="Vector_16" d="M10.8425 10.629C10.6285 10.629 10.4535 10.4557 10.4535 10.242C10.4535 10.0282 10.6247 9.85486 10.8387 9.85486H10.8425C11.0565 9.85486 11.2296 10.0282 11.2296 10.242C11.2296 10.4557 11.0564 10.629 10.8425 10.629Z" fill="#F2F2F6"/>
<path id="Vector_17" d="M3.87475 5.9839C3.66076 5.9839 3.48578 5.81056 3.48578 5.59681C3.48578 5.38306 3.65701 5.20972 3.871 5.20972H3.87479C4.08878 5.20972 4.26189 5.38306 4.26189 5.59681C4.26189 5.81056 4.08873 5.9839 3.87475 5.9839Z" fill="#F2F2F6"/>
<path id="Vector_18" d="M3.87475 9.08071C3.66076 9.08071 3.48578 8.90736 3.48578 8.69361C3.48578 8.47986 3.65701 8.30652 3.871 8.30652H3.87479C4.08878 8.30652 4.26189 8.47986 4.26189 8.69361C4.26189 8.90736 4.08873 9.08071 3.87475 9.08071Z" fill="#F2F2F6"/>
<path id="Vector_19" d="M3.87475 12.1775C3.66076 12.1775 3.48578 12.0042 3.48578 11.7904C3.48578 11.5767 3.65701 11.4033 3.871 11.4033H3.87479C4.08878 11.4033 4.26189 11.5767 4.26189 11.7904C4.26189 12.0042 4.08873 12.1775 3.87475 12.1775Z" fill="#F2F2F6"/>
</g>
<path id="Vector_20" d="M3.87475 7.53237C3.66076 7.53237 3.48578 7.35902 3.48578 7.14527C3.48578 6.93152 3.65701 6.75818 3.871 6.75818H3.87479C4.08878 6.75818 4.26189 6.93152 4.26189 7.14527C4.26184 7.35902 4.08873 7.53237 3.87475 7.53237Z" fill="white"/>
<path id="Vector_21" d="M3.87475 10.629C3.66076 10.629 3.48578 10.4557 3.48578 10.242C3.48578 10.0282 3.65701 9.85486 3.871 9.85486H3.87479C4.08878 9.85486 4.26189 10.0282 4.26189 10.242C4.26189 10.4557 4.08873 10.629 3.87475 10.629Z" fill="white"/>
<path id="Vector_22" d="M2.71343 6.75807C2.49945 6.75807 2.32446 6.58473 2.32446 6.37098C2.32446 6.15723 2.4957 5.98389 2.70968 5.98389H2.71348C2.92746 5.98389 3.10057 6.15723 3.10057 6.37098C3.10053 6.58478 2.92742 6.75807 2.71343 6.75807Z" fill="white"/>
<path id="Vector_23" d="M2.71343 9.85488C2.49945 9.85488 2.32446 9.68153 2.32446 9.46778C2.32446 9.25403 2.4957 9.08069 2.70968 9.08069H2.71348C2.92746 9.08069 3.10057 9.25403 3.10057 9.46778C3.10057 9.68153 2.92742 9.85488 2.71343 9.85488Z" fill="white"/>
<path id="Vector_24" d="M2.71343 8.30654C2.49945 8.30654 2.32446 8.13319 2.32446 7.91944C2.32446 7.70569 2.4957 7.53235 2.70968 7.53235H2.71348C2.92746 7.53235 3.10057 7.70569 3.10057 7.91944C3.10057 8.13319 2.92742 8.30654 2.71343 8.30654Z" fill="#F2F2F6"/>
<path id="Vector_25" d="M2.71343 11.4032C2.49945 11.4032 2.32446 11.2299 2.32446 11.0161C2.32446 10.8024 2.4957 10.629 2.70968 10.629H2.71348C2.92746 10.629 3.10057 10.8024 3.10057 11.0161C3.10057 11.2299 2.92742 11.4032 2.71343 11.4032Z" fill="#F2F2F6"/>
<path id="Vector_26" d="M6.19732 5.9839C5.98333 5.9839 5.80835 5.81056 5.80835 5.59681C5.80835 5.38306 5.97958 5.20972 6.19357 5.20972H6.19737C6.41135 5.20972 6.58446 5.38306 6.58446 5.59681C6.58446 5.81056 6.41126 5.9839 6.19732 5.9839Z" fill="white"/>
<path id="Vector_27" d="M6.19732 9.08071C5.98333 9.08071 5.80835 8.90736 5.80835 8.69361C5.80835 8.47986 5.97958 8.30652 6.19357 8.30652H6.19737C6.41135 8.30652 6.58446 8.47986 6.58446 8.69361C6.58446 8.90736 6.41126 9.08071 6.19732 9.08071Z" fill="white"/>
<path id="Vector_28" d="M6.19732 12.1775C5.98333 12.1775 5.80835 12.0042 5.80835 11.7904C5.80835 11.5767 5.97958 11.4033 6.19357 11.4033H6.19737C6.41135 11.4033 6.58446 11.5767 6.58446 11.7904C6.58446 12.0042 6.41126 12.1775 6.19732 12.1775Z" fill="white"/>
<path id="Vector_29" d="M6.19732 7.53237C5.98333 7.53237 5.80835 7.35902 5.80835 7.14527C5.80835 6.93152 5.97958 6.75818 6.19357 6.75818H6.19737C6.41135 6.75818 6.58446 6.93152 6.58446 7.14527C6.58441 7.35902 6.41126 7.53237 6.19732 7.53237Z" fill="#F2F2F6"/>
<path id="Vector_30" d="M6.19732 10.629C5.98333 10.629 5.80835 10.4557 5.80835 10.242C5.80835 10.0282 5.97958 9.85486 6.19357 9.85486H6.19737C6.41135 9.85486 6.58446 10.0282 6.58446 10.242C6.58446 10.4557 6.41126 10.629 6.19732 10.629Z" fill="#F2F2F6"/>
<path id="Vector_31" d="M5.036 6.75807C4.82202 6.75807 4.64703 6.58473 4.64703 6.37098C4.64703 6.15723 4.81827 5.98389 5.03225 5.98389H5.03605C5.25003 5.98389 5.42314 6.15723 5.42314 6.37098C5.42314 6.58478 5.24999 6.75807 5.036 6.75807Z" fill="#F2F2F6"/>
<path id="Vector_32" d="M5.036 9.85488C4.82202 9.85488 4.64703 9.68153 4.64703 9.46778C4.64703 9.25403 4.81827 9.08069 5.03225 9.08069H5.03605C5.25003 9.08069 5.42314 9.25403 5.42314 9.46778C5.42314 9.68153 5.24999 9.85488 5.036 9.85488Z" fill="#F2F2F6"/>
<path id="Vector_33" d="M5.036 8.30654C4.82202 8.30654 4.64703 8.13319 4.64703 7.91944C4.64703 7.70569 4.81827 7.53235 5.03225 7.53235H5.03605C5.25003 7.53235 5.42314 7.70569 5.42314 7.91944C5.42314 8.13319 5.24999 8.30654 5.036 8.30654Z" fill="white"/>
<path id="Vector_34" d="M5.036 11.4032C4.82202 11.4032 4.64703 11.2299 4.64703 11.0161C4.64703 10.8024 4.81827 10.629 5.03225 10.629H5.03605C5.25003 10.629 5.42314 10.8024 5.42314 11.0161C5.42314 11.2299 5.24999 11.4032 5.036 11.4032Z" fill="white"/>
<path id="Vector_35" d="M8.51611 5.9839C8.30212 5.9839 8.12714 5.81056 8.12714 5.59681C8.12714 5.38306 8.29837 5.20972 8.51236 5.20972H8.51615C8.73014 5.20972 8.90325 5.38306 8.90325 5.59681C8.90325 5.81056 8.73009 5.9839 8.51611 5.9839Z" fill="#F2F2F6"/>
<path id="Vector_36" d="M8.51611 9.08071C8.30212 9.08071 8.12714 8.90736 8.12714 8.69361C8.12714 8.47986 8.29837 8.30652 8.51236 8.30652H8.51615C8.73014 8.30652 8.90325 8.47986 8.90325 8.69361C8.90325 8.90736 8.73009 9.08071 8.51611 9.08071Z" fill="#F2F2F6"/>
<path id="Vector_37" d="M8.51611 12.1775C8.30212 12.1775 8.12714 12.0042 8.12714 11.7904C8.12714 11.5767 8.29837 11.4033 8.51236 11.4033H8.51615C8.73014 11.4033 8.90325 11.5767 8.90325 11.7904C8.90325 12.0042 8.73009 12.1775 8.51611 12.1775Z" fill="#F2F2F6"/>
<path id="Vector_38" d="M8.51611 7.53237C8.30212 7.53237 8.12714 7.35902 8.12714 7.14527C8.12714 6.93152 8.29837 6.75818 8.51236 6.75818H8.51615C8.73014 6.75818 8.90325 6.93152 8.90325 7.14527C8.9032 7.35902 8.73009 7.53237 8.51611 7.53237Z" fill="white"/>
<path id="Vector_39" d="M8.51611 10.629C8.30212 10.629 8.12714 10.4557 8.12714 10.242C8.12714 10.0282 8.29837 9.85486 8.51236 9.85486H8.51615C8.73014 9.85486 8.90325 10.0282 8.90325 10.242C8.90325 10.4557 8.73009 10.629 8.51611 10.629Z" fill="white"/>
<path id="Vector_40" d="M7.35485 6.75807C7.14087 6.75807 6.96588 6.58473 6.96588 6.37098C6.96588 6.15723 7.13712 5.98389 7.3511 5.98389H7.3549C7.56888 5.98389 7.74199 6.15723 7.74199 6.37098C7.74194 6.58478 7.56883 6.75807 7.35485 6.75807Z" fill="white"/>
<path id="Vector_41" d="M7.35485 9.85488C7.14087 9.85488 6.96588 9.68153 6.96588 9.46778C6.96588 9.25403 7.13712 9.08069 7.3511 9.08069H7.3549C7.56888 9.08069 7.74199 9.25403 7.74199 9.46778C7.74199 9.68153 7.56883 9.85488 7.35485 9.85488Z" fill="white"/>
<path id="Vector_42" d="M7.35485 8.30654C7.14087 8.30654 6.96588 8.13319 6.96588 7.91944C6.96588 7.70569 7.13712 7.53235 7.3511 7.53235H7.3549C7.56888 7.53235 7.74199 7.70569 7.74199 7.91944C7.74199 8.13319 7.56883 8.30654 7.35485 8.30654Z" fill="#F2F2F6"/>
<path id="Vector_43" d="M7.35485 11.4032C7.14087 11.4032 6.96588 11.2299 6.96588 11.0161C6.96588 10.8024 7.13712 10.629 7.3511 10.629H7.3549C7.56888 10.629 7.74199 10.8024 7.74199 11.0161C7.74199 11.2299 7.56883 11.4032 7.35485 11.4032Z" fill="#F2F2F6"/>
<path id="Vector_44" d="M9.68121 6.75807C9.46722 6.75807 9.29224 6.58473 9.29224 6.37098C9.29224 6.15723 9.46347 5.98389 9.67746 5.98389H9.68125C9.89524 5.98389 10.0683 6.15723 10.0683 6.37098C10.0683 6.58478 9.89519 6.75807 9.68121 6.75807Z" fill="#F2F2F6"/>
<path id="Vector_45" d="M9.68121 9.85488C9.46722 9.85488 9.29224 9.68153 9.29224 9.46778C9.29224 9.25403 9.46347 9.08069 9.67746 9.08069H9.68125C9.89524 9.08069 10.0683 9.25403 10.0683 9.46778C10.0683 9.68153 9.89519 9.85488 9.68121 9.85488Z" fill="#F2F2F6"/>
<path id="Vector_46" d="M9.68121 8.30654C9.46722 8.30654 9.29224 8.13319 9.29224 7.91944C9.29224 7.70569 9.46347 7.53235 9.67746 7.53235H9.68125C9.89524 7.53235 10.0683 7.70569 10.0683 7.91944C10.0683 8.13319 9.89519 8.30654 9.68121 8.30654Z" fill="white"/>
<path id="Vector_47" d="M9.68121 11.4032C9.46722 11.4032 9.29224 11.2299 9.29224 11.0161C9.29224 10.8024 9.46347 10.629 9.67746 10.629H9.68125C9.89524 10.629 10.0683 10.8024 10.0683 11.0161C10.0683 11.2299 9.89519 11.4032 9.68121 11.4032Z" fill="white"/>
<path id="Vector_48" d="M0.140625 16.8905L0.949687 17.5299H24V15.3179H0.774188L0.140625 16.8905Z" fill="#F2F2F6"/>
<path id="Vector_49" d="M0 15.3179V17.5299H0.949687C0.837141 17.2571 0.774234 16.9585 0.774234 16.6451V15.3179L0 15.3179Z" fill="#E1E1E6"/>
</g>
</g>
</svg>
