<svg width="44" height="44" viewBox="0 0 44 44" fill="none" xmlns="http://www.w3.org/2000/svg">
<g id="Group_light">
<circle id="Ellipse 46" cx="22" cy="14.6667" r="4.58333" stroke="#222222" stroke-width="1.83333" stroke-linecap="round"/>
<path id="Ellipse 47" d="M25.2412 11.9167C25.6038 11.2886 26.1445 10.7822 26.7949 10.4615C27.4453 10.1407 28.1762 10.02 28.8952 10.1147C29.6142 10.2093 30.289 10.5151 30.8342 10.9932C31.3795 11.4714 31.7707 12.1005 31.9584 12.801C32.1461 13.5015 32.1218 14.2419 31.8887 14.9286C31.6556 15.6153 31.2241 16.2175 30.6488 16.659C30.0734 17.1004 29.3801 17.3614 28.6565 17.4088C27.9328 17.4562 27.2114 17.288 26.5833 16.9254" stroke="#222222" stroke-width="1.83333"/>
<path id="Ellipse 49" d="M18.7588 11.9167C18.3962 11.2886 17.8555 10.7822 17.2051 10.4615C16.5547 10.1407 15.8238 10.02 15.1048 10.1147C14.3858 10.2093 13.711 10.5151 13.1658 10.9932C12.6205 11.4714 12.2293 12.1005 12.0416 12.801C11.8539 13.5015 11.8782 14.2419 12.1113 14.9286C12.3444 15.6153 12.7759 16.2175 13.3512 16.659C13.9266 17.1004 14.6199 17.3614 15.3435 17.4088C16.0672 17.4562 16.7886 17.288 17.4167 16.9254" stroke="#222222" stroke-width="1.83333"/>
<path id="Rectangle 4160" d="M22 22.9167C29.4805 22.9167 31.4114 28.9706 31.9099 32.0961C32.0694 33.096 31.2625 33.9167 30.25 33.9167H13.75C12.7375 33.9167 11.9307 33.096 12.0901 32.0961C12.5886 28.9706 14.5196 22.9167 22 22.9167Z" stroke="#222222" stroke-width="1.83333" stroke-linecap="round"/>
<path id="Subtract" d="M35.377 28.2631L34.4878 28.4858L35.377 28.2631ZM23.993 23.0742L23.316 22.4561L22.1786 23.7019L23.8427 23.9784L23.993 23.0742ZM31.499 30.25L30.6185 30.5048L30.81 31.1667H31.499V30.25ZM28.4166 22C30.3008 22 31.6241 22.9215 32.5936 24.2127C33.5824 25.5297 34.1631 27.1894 34.4878 28.4858L36.2662 28.0404C35.9157 26.6411 35.2602 24.7109 34.0596 23.1119C32.8397 21.4872 31.0203 20.1667 28.4166 20.1667V22ZM24.6699 23.6923C25.5873 22.6875 26.7862 22 28.4166 22V20.1667C26.185 20.1667 24.5182 21.1395 23.316 22.4561L24.6699 23.6923ZM23.8427 23.9784C28.0603 24.6793 29.8447 27.8302 30.6185 30.5048L32.3796 29.9953C31.5159 27.0098 29.3681 23.0382 24.1433 22.1699L23.8427 23.9784ZM33.7241 29.3333H31.499V31.1667H33.7241V29.3333ZM34.4878 28.4858C34.5864 28.8797 34.2971 29.3333 33.7241 29.3333V31.1667C35.3205 31.1667 36.6945 29.7508 36.2662 28.0404L34.4878 28.4858Z" fill="#222222"/>
<path id="Subtract_2" d="M20.007 23.0742L20.1573 23.9784L21.8214 23.7019L20.6839 22.4561L20.007 23.0742ZM8.62298 28.2631L7.73377 28.0404L8.62298 28.2631ZM12.5009 30.25V31.1667H13.19L13.3815 30.5048L12.5009 30.25ZM15.5833 22C17.2138 22 18.4127 22.6875 19.33 23.6923L20.6839 22.4561C19.4818 21.1395 17.8149 20.1667 15.5833 20.1667V22ZM9.51218 28.4858C9.83684 27.1894 10.4175 25.5297 11.4064 24.2127C12.3759 22.9215 13.6992 22 15.5833 22V20.1667C12.9797 20.1667 11.1603 21.4872 9.94034 23.1119C8.73976 24.7109 8.0842 26.6411 7.73377 28.0404L9.51218 28.4858ZM10.2758 29.3333C9.70288 29.3333 9.41354 28.8797 9.51218 28.4858L7.73377 28.0404C7.30544 29.7508 8.67945 31.1667 10.2758 31.1667V29.3333ZM12.5009 29.3333H10.2758V31.1667H12.5009V29.3333ZM13.3815 30.5048C14.1553 27.8302 15.9397 24.6793 20.1573 23.9784L19.8567 22.1699C14.6319 23.0382 12.4841 27.0098 11.6204 29.9953L13.3815 30.5048Z" fill="#222222"/>
</g>
</svg>
