<svg width="34" height="34" viewBox="0 0 34 34" fill="none" xmlns="http://www.w3.org/2000/svg">
<g id="1375510 1" clip-path="url(#clip0_1_854)">
<path id="Vector" d="M21.238 22.4183C21.238 22.3981 21.2447 22.361 21.2582 22.3068L23.1446 16.1204C23.1985 15.9513 23.322 15.821 23.5147 15.7297C23.7075 15.6384 23.9287 15.5928 24.179 15.5928C24.4291 15.5928 24.6506 15.6384 24.8434 15.7297C25.0361 15.821 25.1593 15.9513 25.2135 16.1204L27.11 22.3068C27.1235 22.361 27.1305 22.3981 27.1305 22.4183C27.1305 22.5942 27.0205 22.7465 26.8008 22.8749C26.5811 23.0033 26.3528 23.0674 26.1162 23.0674C25.8254 23.0674 25.6529 22.9696 25.599 22.7735L25.2542 21.5058H23.1142L22.7695 22.7735C22.7152 22.9696 22.5427 23.0674 22.2522 23.0674C22.0154 23.0674 21.7871 23.0033 21.5674 22.8749C21.3477 22.7465 21.238 22.5942 21.238 22.4183ZM23.4387 20.2887H24.9194L24.179 17.5707L23.4387 20.2887Z" fill="#222222"/>
<path id="Vector_2" d="M29.1712 11.8089H22.3908V8.48106C22.3908 5.81859 20.2248 3.65234 17.5621 3.65234H4.82867C2.16619 3.65234 -5.34058e-05 5.81859 -5.34058e-05 8.48106V14.15C-5.34058e-05 16.7761 2.10705 18.9193 4.71972 18.9777C4.70234 19.5284 4.64086 20.1418 4.5358 20.8101C4.46473 21.2612 4.63256 21.7045 4.98431 21.996C5.22036 22.1916 5.50803 22.2933 5.80193 22.2933C5.94823 22.2933 6.09609 22.2679 6.24006 22.2165C7.19724 21.8744 8.86233 21.009 9.72094 18.9787H14.5063V22.3068C14.5063 24.9693 16.6726 27.1355 19.3351 27.1355H24.279C25.1378 29.1658 26.8027 30.0309 27.7601 30.3733C27.9038 30.4247 28.0517 30.4499 28.198 30.4499C28.4919 30.4499 28.7795 30.3482 29.0156 30.1526C29.3676 29.8613 29.5352 29.4177 29.4641 28.9666C29.359 28.2987 29.2976 27.6849 29.2802 27.1342C31.8928 27.0761 33.9999 24.933 33.9999 22.3068V16.6379C33.9999 13.9751 31.8337 11.8089 29.1712 11.8089ZM32.6718 22.3065C32.6718 24.237 31.1014 25.8074 29.1712 25.8074H28.6174C28.2605 25.8074 27.9674 26.0896 27.9539 26.4465C27.9251 27.2133 27.9878 28.1051 28.1406 29.0984C27.1739 28.7381 25.9339 27.9552 25.3671 26.2608C25.2766 25.99 25.0229 25.8074 24.7376 25.8074H19.3351C17.4049 25.8074 15.8345 24.237 15.8345 22.3065V18.3154C15.8345 18.3152 15.8345 18.3149 15.8345 18.3146C15.8345 18.3144 15.8345 18.3141 15.8345 18.3139V16.6376C15.8345 16.0423 15.9865 15.4545 16.2739 14.938C16.4524 14.6174 16.3372 14.2133 16.0166 14.0348C15.6962 13.8563 15.2918 13.9718 15.1133 14.2921C14.7162 15.0057 14.5063 15.8166 14.5063 16.6376V17.6506H9.26232C8.97672 17.6506 8.72303 17.8332 8.6325 18.104C8.06597 19.7984 6.82604 20.5815 5.85926 20.9416C6.01179 19.9483 6.07456 19.0565 6.04603 18.2897C6.03254 17.9328 5.73942 17.6506 5.38223 17.6506H4.82867C2.89848 17.6506 1.32807 16.0802 1.32807 14.15V8.48106C1.32807 6.55087 2.89848 4.98047 4.82867 4.98047H17.5621C19.4923 4.98047 21.0627 6.55087 21.0627 8.48106V11.8092H20.121C19.7542 11.8092 19.457 12.1064 19.457 12.4732C19.457 12.84 19.7542 13.1373 20.121 13.1373H29.1712C31.1014 13.1373 32.6718 14.7077 32.6718 16.6379V22.3065Z" fill="#222222"/>
<path id="Vector_3" d="M13.786 9.12981C14.1528 9.12981 14.4501 8.83253 14.4501 8.46574C14.4501 8.09895 14.1528 7.80168 13.786 7.80168H11.2527V6.80792C11.2527 6.44113 10.9554 6.14386 10.5886 6.14386C10.2221 6.14386 9.92459 6.44113 9.92459 6.80792V7.80168H7.39155C7.02476 7.80168 6.72749 8.09895 6.72749 8.46574C6.72749 8.83253 7.02476 9.12981 7.39155 9.12981H11.793C11.6672 9.68259 11.3567 10.5752 10.5915 11.5804C10.2232 11.0966 9.96402 10.6455 9.7827 10.2569C9.62757 9.92461 9.23225 9.7809 8.89996 9.93628C8.56767 10.0914 8.42396 10.4865 8.57908 10.8188C8.81929 11.3331 9.17363 11.9404 9.69346 12.5863C9.05508 13.2042 8.23071 13.8351 7.1651 14.4335C6.84526 14.613 6.73164 15.0177 6.91114 15.3375C7.0328 15.5546 7.25848 15.6765 7.4909 15.6765C7.60089 15.6765 7.71243 15.6493 7.81515 15.5914C8.97078 14.9427 9.87841 14.2519 10.5918 13.5658C11.2991 14.2475 12.2042 14.9416 13.3621 15.5914C13.4651 15.6493 13.5767 15.6765 13.6867 15.6765C13.9188 15.6765 14.1445 15.5546 14.2664 15.3375C14.4459 15.0177 14.332 14.613 14.0125 14.4335C12.9458 13.8348 12.124 13.2021 11.4895 12.5871C12.6389 11.157 13.0195 9.85223 13.1448 9.12981H13.786Z" fill="#222222"/>
<path id="Vector_4" d="M17.4472 12.2613H17.4456C17.0791 12.2613 16.7823 12.5586 16.7823 12.9254C16.7823 13.2921 17.0807 13.5894 17.4472 13.5894C17.814 13.5894 18.1112 13.2921 18.1112 12.9254C18.1112 12.5586 17.814 12.2613 17.4472 12.2613Z" fill="#222222"/>
</g>
<defs>
<clipPath id="clip0_1_854">
<rect width="34" height="34" fill="white"/>
</clipPath>
</defs>
</svg>
